<?xml version="1.0" encoding="UTF-8" standalone="no"?>
<!-- Created with Inkscape (http://www.inkscape.org/) -->

<svg
   xmlns:dc="http://purl.org/dc/elements/1.1/"
   xmlns:cc="http://creativecommons.org/ns#"
   xmlns:rdf="http://www.w3.org/1999/02/22-rdf-syntax-ns#"
   xmlns:svg="http://www.w3.org/2000/svg"
   xmlns="http://www.w3.org/2000/svg"
   xmlns:sodipodi="http://sodipodi.sourceforge.net/DTD/sodipodi-0.dtd"
   xmlns:inkscape="http://www.inkscape.org/namespaces/inkscape"
   version="1.1"
   id="svg10"
   width="2188"
   height="942.66669"
   viewBox="0 0 2188 942.66669"
   sodipodi:docname="logo-src.svg"
   inkscape:version="0.92.0 r15299">
  <metadata
     id="metadata16">
    <rdf:RDF>
      <cc:Work
         rdf:about="">
        <dc:format>image/svg+xml</dc:format>
        <dc:type
           rdf:resource="http://purl.org/dc/dcmitype/StillImage" />
        <dc:title></dc:title>
      </cc:Work>
    </rdf:RDF>
  </metadata>
  <defs
     id="defs14" />
  <sodipodi:namedview
     pagecolor="#ffffff"
     bordercolor="#666666"
     borderopacity="1"
     objecttolerance="10"
     gridtolerance="10"
     guidetolerance="10"
     inkscape:pageopacity="0"
     inkscape:pageshadow="2"
     inkscape:window-width="3840"
     inkscape:window-height="2035"
     id="namedview12"
     showgrid="false"
     inkscape:zoom="0.59141015"
     inkscape:cx="1086.3997"
     inkscape:cy="496.42761"
     inkscape:window-x="2723"
     inkscape:window-y="-13"
     inkscape:window-maximized="1"
     inkscape:current-layer="svg10" />
  <path
     style="fill:#000000;stroke-width:1.33333337"
     d="m 1998.192,925.06998 c -0.4523,-1.68848 -0.8304,-6.85758 -0.8404,-11.48692 l -0.019,-8.41694 8.7931,-3.98695 c 9.6161,-4.36019 10.7127,-4.17439 18.8325,3.19113 4.8782,4.42494 2.1864,4.99471 -7.3149,1.54842 -4.9312,-1.78862 -9.3559,-3.25203 -9.8328,-3.25203 -0.674,0 -2.4652,13.64807 -3.0623,23.33333 -0.045,0.73334 -1.354,1.51482 -2.9084,1.73663 -2.007,0.2864 -3.0645,-0.48649 -3.6485,-2.66667 z M 1978,905.90421 c 2.2,-1.83329 8.5,-6.07225 14,-9.41992 11.3104,-6.88432 16,-10.80693 16,-13.38335 0,-2.67786 -1.8596,-2.13194 -5.3333,1.56575 -3.9059,4.15765 -5.3334,4.21444 -5.3334,0.21217 0,-2.68653 0.9978,-3.34445 7.1652,-4.72465 3.9408,-0.88191 9.4676,-2.77739 12.2819,-4.21217 2.8143,-1.43478 5.52,-2.60869 6.0127,-2.60869 2.3133,0 1.998,5.85101 -0.5896,10.93991 -2.2467,4.41848 -4.608,6.54067 -10.8702,9.76883 -8.6525,4.46045 -34.4804,15.32152 -36.2489,15.24332 -0.5964,-0.0264 0.7156,-1.54792 2.9156,-3.3812 z m 6.2557,-17.14991 c -5.3268,-6.06701 -6.1418,-9.15092 -3.6778,-13.91585 2.5036,-4.8416 6.8121,-7.99712 18.6205,-13.63764 9.4516,-4.5148 11.1009,-6.30372 9.4045,-10.20079 -0.9648,-2.21648 -1.0437,-2.21557 -1.5772,0.0181 -0.4754,1.99083 -6.6105,6.31522 -8.9594,6.31522 -1.443,0 -0.7,-5.03288 0.9337,-6.32542 0.9167,-0.72521 6.6864,-2.9712 12.8217,-4.99105 12.8118,-4.21789 13.458,-3.91948 13.4912,6.22967 0.041,12.8236 -4.8861,18.2754 -20.9796,23.2092 l -11,3.37231 v 5.65264 c 0,5.14121 -1.7309,8.85265 -4.1285,8.85265 -0.5107,0 -2.7377,-2.06057 -4.9491,-4.57905 z m -8.1589,-25.60076 c -3.2212,-4.09513 -3.1824,-3.73531 -1.3333,-12.35772 2.2098,-10.30419 8.2694,-15.06469 28.3346,-22.26004 13.2483,-4.75085 16.335,-10.74333 8.7996,-17.08391 -2.2562,-1.89852 -4.6562,-3.45185 -5.3333,-3.45185 -0.6771,0 -1.2311,3.31485 -1.2311,7.36633 0,6.68044 -0.3184,7.48742 -3.4201,8.66667 -5.6481,2.1474 -6.0668,1.68616 -5.6464,-6.21984 l 0.3999,-7.52017 15.3333,-5.1223 15.3333,-5.12229 3.0163,3.64247 c 4.4204,5.33818 6.2316,13.11146 4.4445,19.07592 -2.9952,9.99736 -8.4998,14.186 -26.1274,19.88128 -5.1334,1.6585 -11.3162,4.21042 -13.7398,5.6709 -3.6982,2.22872 -4.3409,3.32702 -4,6.8349 0.3482,3.5801 -0.3584,4.7018 -4.9269,7.82186 -2.9333,2.00332 -5.7397,3.65332 -6.2365,3.66667 -0.4968,0.0133 -2.1468,-1.55665 -3.6667,-3.48888 z M 742.13459,853.19389 c -12.80082,-1.86774 -16.84728,-6.26044 -14.92548,-16.20263 0.45976,-2.37852 5.26256,-15.72457 10.67288,-29.65791 l 9.83696,-25.33333 12.14053,-0.38337 c 6.67728,-0.21086 12.15269,0.0892 12.16756,0.66666 0.0149,0.57752 -3.96359,11.36283 -8.84104,23.96735 -4.87747,12.60452 -8.505,23.86352 -8.06121,25.02001 1.47086,3.83303 7.73525,4.96362 24.87521,4.48946 13.32437,-0.3686 17.38285,-0.94378 20.23803,-2.86816 3.67866,-2.4794 7.56361,-10.77494 17.7455,-37.89195 l 5.13156,-13.66667 h 12.38331 12.38331 l -1.79463,5 c -8.35059,23.2655 -20.09848,51.0868 -23.20429,54.95231 -5.15432,6.41511 -12.54978,10.27841 -22.8858,11.95531 -10.12631,1.64288 -46.48276,1.61329 -57.8624,-0.0471 z m 348.40481,0.20093 c -15.7872,-2.87229 -17.8312,-9.92824 -9.3879,-32.40672 9.3326,-24.8462 14.2841,-31.95769 25.8388,-37.11087 6.554,-2.92294 8.9917,-3.15898 37.4945,-3.63038 33.8158,-0.55928 41.1655,0.0701 44.9446,3.84928 2.9969,2.99685 3.4409,11.30765 0.9694,18.14256 l -1.6012,4.428 h -12.5414 c -10.214,0 -12.4083,-0.34712 -11.8238,-1.8704 0.3948,-1.02872 -0.04,-2.90706 -0.9667,-4.17408 -2.1872,-2.99119 -22.7683,-4.22935 -36.1324,-2.17374 -7.7799,1.1967 -9.8881,2.09363 -12.6666,5.38918 -3.9177,4.64658 -11.1234,22.80628 -10.4457,26.32509 0.8575,4.45265 6.2851,5.79697 23.4885,5.81763 18.0934,0.0217 23.5105,-1.38448 27.7491,-7.20323 2.5196,-3.45887 2.9086,-3.54191 14.8255,-3.1646 l 12.2379,0.38748 -4.0374,8.40447 c -4.3516,9.05844 -10.9982,15.04846 -19.6681,17.72525 -5.8891,1.81823 -59.7514,2.81623 -68.2771,1.26508 z m 234.7939,0.53527 c -1.1,-0.23499 -4.9253,-0.81346 -8.5007,-1.28547 -7.9776,-1.05317 -12.8326,-5.34385 -12.8326,-11.341 0,-3.43499 8.3426,-26.84648 19.351,-54.3036 l 2.2719,-5.66667 h 12.377 12.3769 l -8.6312,22.19835 c -9.9586,25.61229 -10.4547,28.26301 -5.7456,30.70233 4.6523,2.4099 33.3025,2.37172 39.1036,-0.0521 5.8675,-2.45157 7.112,-4.68384 17.0077,-30.50673 l 8.5554,-22.32483 12.3333,-0.008 c 6.7833,-0.005 12.3333,0.16901 12.3333,0.386 0,1.03744 -20.1494,52.0222 -21.8344,55.24828 -4.5306,8.67451 -13.4641,14.20323 -26.321,16.28937 -7.6196,1.23636 -46.8161,1.7388 -51.8446,0.66458 z m 425.3334,0.004 c -1.1,-0.23278 -4.3152,-0.80259 -7.1448,-1.26626 -7.0222,-1.15065 -11.5219,-6.19672 -11.5219,-12.92078 0,-5.30103 7.1165,-26.0287 12.8285,-37.36452 4.6735,-9.27476 10.2851,-14.99248 18.1618,-18.50535 6.554,-2.92295 8.9917,-3.15899 37.4945,-3.63039 34.0375,-0.56294 40.5087,-0.004 44.6535,3.85755 3.3008,3.07524 3.8498,10.97363 1.2605,18.13429 l -1.6012,4.428 h -12.3988 c -12.3111,0 -12.3988,-0.0235 -12.3988,-3.30793 0,-4.54573 -3.7513,-5.37297 -24,-5.29245 -11.7365,0.0467 -17.8376,0.63828 -20.6252,2 -4.7371,2.314 -8.9797,9.38569 -12.9696,21.61798 -4.2437,13.01019 -3.5373,13.52182 19.4429,14.08207 19.2554,0.46945 25.9068,-0.99232 28.7582,-6.32012 1.464,-2.73541 1.2645,-2.77955 -12.5594,-2.77955 -7.7258,0 -14.0498,-0.45 -14.0534,-1 0,-0.55 1.0148,-3.85 2.2633,-7.33333 l 2.27,-6.33333 h 27.0699 c 14.8885,0 27.07,0.50077 27.07,1.11282 0,3.02734 -11.088,27.8333 -13.686,30.61822 -7.7247,8.28046 -21.9216,11.03266 -55.6124,10.78096 -11.3859,-0.0851 -21.6016,-0.34512 -22.7016,-0.57788 z M 308.02289,853.05006 c 0.012,-0.21085 6.21083,-16.28337 13.77384,-35.71671 l 13.75095,-35.33333 18.58355,-0.36805 18.58354,-0.36806 5.30928,22.07008 5.30928,22.0701 22.92523,-22.07348 22.92523,-22.07348 17.9303,0.37145 17.9303,0.37144 -13.70576,35.33333 -13.70576,35.33334 -12.10808,0.38281 -12.10808,0.38281 1.8245,-5.04948 c 1.00348,-2.77721 5.18472,-13.64544 9.29164,-24.1516 C 428.63979,813.72506 432,804.82127 432,804.44502 c 0,-0.37625 -11.55,10.45801 -25.66667,24.07613 l -25.66666,24.76023 -8.19088,0.026 -8.1909,0.026 -5.61961,-23.66667 c -3.09079,-13.01666 -6.05143,-24.13321 -6.57921,-24.70344 -0.52779,-0.57021 -5.18823,9.92979 -10.35655,23.33334 l -9.39695,24.3701 -12.16629,0.38338 c -6.69145,0.21085 -12.15597,0.21085 -12.14339,0 z m 160.66246,-14.71671 c 8.05193,-8.25 23.93466,-24.45 35.29496,-36 l 20.6551,-21 h 16.34896 c 8.99194,0 16.34896,0.27794 16.34896,0.61763 0,0.69504 12.9133,63.71917 14.01118,68.38237 0.69776,2.96375 0.53913,3 -13.12967,3 h -13.83596 l -1.19436,-5.66666 -1.19437,-5.66667 -24.6897,-0.36163 -24.68969,-0.36164 -5.91632,6.02831 -5.91633,6.02829 H 467.4118 454.04548 Z M 537.2014,812.4009 c -1.39411,-6.37952 -2.53473,-12.21701 -2.53473,-12.9722 0,-0.7552 -5.4,4.00189 -12,10.57132 -6.6,6.56943 -12,12.40691 -12,12.9722 0,0.56529 6.54062,1.0278 14.53473,1.0278 h 14.53473 z m 53.47431,33.93245 c 1.45106,-3.85 7.65414,-19.9 13.78465,-35.66666 l 11.14635,-28.66667 18.71981,-0.36907 18.7198,-0.36906 13.20169,26.03836 13.2017,26.03837 9.95554,-25.66931 9.95556,-25.66929 12.44795,-0.38507 c 7.98847,-0.24712 12.28255,0.0992 11.98627,0.96666 -0.25394,0.74344 -6.4617,16.95257 -13.79503,36.02028 l -13.33333,34.66856 -18.22946,0.0315 -18.22944,0.0315 -13.0836,-25.33333 c -7.19598,-13.93334 -13.45834,-25.33334 -13.91636,-25.33334 -0.45801,0 -5.2329,11.4 -10.61088,25.33334 l -9.77813,25.33333 h -12.39069 -12.39068 l 2.63828,-7 z m 253.33082,6.66667 c 0.004,-0.18333 6.19571,-16.23333 13.76026,-35.66667 l 13.7537,-35.33333 43.5731,-0.35155 c 23.96518,-0.19336 43.57308,0.045 43.57308,0.52976 0,0.48474 -1.2804,4.39294 -2.84532,8.6849 l -2.84532,7.80356 h -31.6402 -31.6402 l -2.18115,5.71124 c -1.19963,3.14118 -2.18115,6.1297 -2.18115,6.64116 0,0.51145 13.13724,1.0914 29.19386,1.28876 l 29.19385,0.35884 -3.33499,8.33333 -3.33498,8.33333 h -29.65483 -29.65481 l -4.48135,12 -4.48133,12 h -12.38938 c -6.81416,0 -12.38642,-0.15 -12.38284,-0.33333 z m 128.6694,-35.69533 35.99077,-36.02867 15.9024,0.362 15.9025,0.362 7.0466,34 c 3.8756,18.7 7.0695,34.75 7.0975,35.66667 0.037,1.22546 -3.4736,1.66666 -13.2632,1.66666 h -13.3141 l -1.5108,-6 -1.5108,-6 h -24.2308 -24.23077 l -5.88856,6 -5.88856,6 h -14.04646 -14.04646 z m 49.99077,6.17128 c 0,-1.87006 -4.4526,-21.76007 -5.1461,-22.98802 -0.5091,-0.90149 -5.6144,3.54024 -12.6432,11 l -11.78923,12.51207 h 14.78923 c 8.1341,0 14.7893,-0.23583 14.7893,-0.52405 z m 198.6666,29.09022 c 0,-0.42194 4.5,-12.31834 10,-26.43646 5.5,-14.11812 10,-26.0729 10,-26.56618 0,-0.49328 -7.2,-0.89686 -16,-0.89686 -8.8,0 -16,-0.54662 -16,-1.2147 0,-0.66806 1.2833,-4.56806 2.8517,-8.66666 l 2.8518,-7.45198 h 45.9048 45.9048 l -0.9496,3 c -0.5223,1.65 -2.0414,5.55 -3.3758,8.66667 l -2.4262,5.66667 h -16.6048 -16.6048 l -8.9571,23 c -4.9264,12.65 -9.745,24.95 -10.7079,27.33333 l -1.7508,4.33333 h -12.068 c -6.6375,0 -12.0681,-0.34522 -12.0681,-0.76716 z m 201.3068,-0.1828 c -0.015,-0.57752 6.0807,-16.80004 13.5451,-36.05004 l 13.5716,-35 h 39.8311 c 43.5166,0 47.8633,0.62966 50.3997,7.30067 3.2813,8.63076 -5.8061,28.33237 -15.3884,33.36168 l -5.4007,2.83463 3.0674,2.31376 c 3.8866,2.93169 3.8614,6.41689 -0.1227,17.02694 l -3.1904,8.49566 -12.1429,0.38337 c -7.9724,0.25169 -12.143,-0.1064 -12.143,-1.04283 0,-0.78441 0.9,-3.5802 2,-6.21286 2.5672,-6.14432 2.5339,-9.30418 -0.1093,-10.31836 -1.16,-0.44514 -11.2147,-0.80932 -22.3436,-0.80932 h -20.2347 l -3.4724,9 -3.4724,9 -12.1838,0.38337 c -6.7012,0.21085 -12.196,-0.0892 -12.2106,-0.66667 z m 83.8752,-37.63569 c 1.287,-0.68877 3.4696,-3.75752 4.8504,-6.81944 3.9227,-8.69909 2.0872,-9.41044 -23.1217,-8.96057 l -20.4912,0.36566 -3.2097,7.89316 c -1.7654,4.34124 -3.2098,8.09124 -3.2098,8.33334 0,1.08082 43.0923,0.30624 45.182,-0.81215 z m 38.0656,36.25232 c 0.4764,-1.28333 6.6907,-17.47069 13.8094,-35.97189 l 12.943,-33.63858 12.4444,-0.0281 c 7.5107,-0.0169 12.2683,0.48729 12,1.27188 -0.2444,0.71499 -6.4444,16.90084 -13.7777,35.96855 l -13.3333,34.66856 -12.476,0.0315 c -11.33,0.0285 -12.3964,-0.18288 -11.6098,-2.30188 z m 56.6715,-17.33333 c 4.2188,-10.81667 10.5132,-27.01667 13.9877,-36 l 6.3174,-16.33334 h 18.548 18.5481 l 13.1265,26.2268 13.1266,26.2268 7.7394,-19.89346 c 4.2568,-10.9414 8.7808,-22.59347 10.0534,-25.89347 l 2.3138,-6 12.16,-0.38337 c 6.688,-0.21086 12.16,0.0387 12.16,0.55448 0,0.51581 -6.1058,16.73832 -13.5686,36.05002 l -13.5687,35.1122 h -18.1004 -18.1005 l -13.3308,-25.90533 c -7.332,-14.24793 -13.6907,-25.49793 -14.1304,-25 -0.4398,0.49793 -1.705,3.30533 -2.8116,6.23867 -1.1067,2.93333 -5.453,14.18333 -9.6586,25 l -7.6464,19.66666 h -12.4176 -12.4177 z m 369.7576,-3.33334 c -2.2989,-2.38333 -4.7713,-5.90353 -5.4945,-7.82266 -1.6306,-4.32786 0.039,-12.38379 3.538,-17.07415 4.1508,-5.56349 17.9594,-14.22809 27.8037,-17.44609 5.0285,-1.64379 11.4516,-4.25763 14.2735,-5.80855 7.9757,-4.38348 11.3157,-13.26871 6.8448,-18.20905 -1.8667,-2.06264 -1.3208,-2.3674 7,-3.90726 15.5506,-2.87786 15.3152,-2.9376 17.4144,4.41858 4.7377,16.6028 -5.6756,27.6336 -35.3214,37.41554 -14.5021,4.78516 -19.615,8.28539 -20.152,13.79586 -0.315,3.23356 0.4379,5.06917 3.0863,7.52357 l 3.5029,3.24648 -5.9141,2.61612 c -3.2528,1.43885 -6.3269,3.28409 -6.8316,4.10052 -1.6567,2.68067 -5.4995,1.55784 -9.75,-2.84891 z m -4.5296,-41.3834 c -6.2387,-5.50624 -7.8137,-8.73805 -7.8137,-16.03277 0,-12.30383 8.153,-23.56156 21.3542,-29.48592 6.2476,-2.80376 11.4063,-3.88351 23.0158,-4.81743 17.7526,-1.42811 29.2268,-4.01776 38.402,-8.66719 6.1865,-3.13493 6.688,-3.74532 6.3077,-7.67618 -0.3452,-3.5687 -1.0289,-4.34106 -4.1608,-4.70016 -2.4779,-0.28412 -5.3011,0.75496 -8.3317,3.06658 -3.909,2.98147 -5.6903,3.43742 -12.0971,3.09639 -10.0908,-0.53712 -12.1363,-3.27192 -8.5059,-11.37237 1.4352,-3.20236 4.4334,-6.84199 6.9383,-8.42279 3.8577,-2.43465 5.7248,-2.68343 14.8909,-1.98411 16.6742,1.27212 24.9895,5.98224 27.5863,15.62584 2.0728,7.69795 -0.2188,14.03907 -7.6992,21.3049 -11.7567,11.41927 -27.0019,16.92535 -53.0357,19.15483 -12.826,1.09838 -19.4488,3.90805 -21.2424,9.01192 -1.5948,4.53773 1.7492,11.6978 6.7008,14.3478 3.135,1.67784 2.9948,1.83204 -6.2075,6.82534 -5.1784,2.8098 -9.8277,5.08619 -10.3321,5.05866 -0.5043,-0.0276 -3.1008,-1.97754 -5.7699,-4.33334 z M 1996,773.47601 c 0,-9.80088 0.6943,-10.80932 7.4424,-10.80932 3.0549,0 3.2243,0.42378 3.2243,8.06804 0,7.94608 -0.069,8.09722 -4.6239,10 -2.5431,1.06257 -4.9431,1.93196 -5.3333,1.93196 -0.3902,0 -0.7095,-4.13582 -0.7095,-9.19068 z m -42.7389,-27.96343 c -11.6607,-7.51595 -15.9278,-14.23759 -15.9278,-25.08956 0,-5.24684 0.6847,-6.75471 5.0484,-11.1184 5.7968,-5.79683 12.4174,-8.00342 24.638,-8.21167 11.0442,-0.18819 16.3931,2.57388 19.7704,10.20888 2.9119,6.58281 2.2622,9.69745 -2.3921,11.46699 -5.9307,2.25482 -12.9545,1.42212 -17.7313,-2.10214 -2.7135,-2.00193 -6.3123,-3.33333 -9.0102,-3.33333 -4.2649,0 -4.471,0.21924 -4.0744,4.33333 0.3647,3.78188 1.3511,4.7917 7.7512,7.9352 4.0334,1.98103 10.2252,4.32071 13.7596,5.1993 l 6.4262,1.59742 -6.4262,3.23632 c -3.5344,1.77999 -7.959,4.69031 -9.8325,6.46739 -4.2931,4.07222 -4.8057,4.04702 -11.9993,-0.58973 z M 1996,687.55866 v -45.7747 l -3.4471,-1.84482 c -10.5478,-5.64504 -8.7458,-22.54239 2.924,-27.41836 9.719,-4.06084 20.5231,3.7675 20.5231,14.87042 0,4.91166 -0.7507,6.60398 -4.6667,10.51992 l -4.6666,4.66667 v 45.37779 45.37777 H 2001.3333 1996 Z m -1274.66667,35.2861 c -8.31946,-1.34094 -11.90526,-3.62568 -14.16012,-9.0223 -2.37202,-5.67708 -1.62528,-10.30348 4.32776,-26.81219 8.38794,-23.26101 12.08471,-28.52277 23.84898,-33.94512 6.25978,-2.88525 8.5591,-3.09092 39.17974,-3.50463 27.53399,-0.37198 33.3998,-0.1072 38.19544,1.72428 7.64663,2.92028 9.40631,7.1434 7.02927,16.86983 L 818,675.33335 805.11256,675.7136 c -11.99195,0.35384 -12.84251,0.2084 -12.24064,-2.09313 1.35195,-5.16987 -2.77623,-6.29117 -22.90921,-6.22263 -25.0143,0.0852 -27.44138,1.65415 -33.97066,21.96023 -4.83568,15.03899 -1.93344,16.70564 27.4653,15.7724 l 15.53978,-0.49329 4.3094,-4.98526 4.3094,-4.98524 h 12.12819 12.1282 l -2.26949,6.17632 c -3.25758,8.86534 -10.99238,17.11491 -18.6071,19.84543 -5.03817,1.8066 -12.17602,2.35659 -34.99573,2.69645 -15.76667,0.23483 -31.36667,-0.008 -34.66667,-0.54012 z m 172,0.36546 c -15.82858,-2.74138 -18.3799,-6.81875 -13.0632,-20.87687 1.37556,-3.63717 1.48632,-3.66667 13.7668,-3.66667 11.92456,0 12.35311,0.1032 11.64704,2.80315 -0.42946,1.64229 0.0364,3.29033 1.12483,3.97959 1.02183,0.64704 11.30787,1.18562 22.85787,1.19685 19.23754,0.0187 21.2238,-0.20339 23.66666,-2.64625 3.64583,-3.64583 3.44079,-7.75491 -0.4355,-8.72779 -1.7062,-0.42823 -15.08608,-1.19195 -29.73307,-1.69716 -32.0198,-1.10443 -33.83143,-1.75053 -33.83143,-12.06557 0,-8.5159 6.8751,-22.32312 13.20139,-26.51232 7.87196,-5.21271 13.22671,-5.81364 48.07713,-5.39536 33.0271,0.39638 33.19408,0.41294 36.61662,3.63061 3.74462,3.52051 4.32724,7.81936 1.97442,14.56863 l -1.46376,4.19896 h -11.77682 c -11.19788,0 -11.79779,-0.14748 -12.20291,-3 -0.41655,-2.93299 -0.85789,-3.00855 -19.7594,-3.38276 -22.43896,-0.44424 -24.89501,-0.038 -26.94251,4.4557 -2.74345,6.02123 -0.6436,6.53672 29.57563,7.26039 25.61469,0.6134 28.13948,0.89036 31.60281,3.46663 2.90919,2.16405 3.85807,4.07485 4.17798,8.41336 0.92368,12.5269 -7.11127,26.17242 -18.41391,31.2718 -5.39524,2.43416 -9.09097,2.73701 -36.66667,3.00469 -16.86666,0.16373 -32.16666,0.0379 -34,-0.27961 z m 172.60057,-0.45644 c -8.2885,-1.30992 -12.0596,-3.56208 -14.0629,-8.39854 -2.1358,-5.15626 -0.8669,-11.41924 6.2527,-30.86224 4.5236,-12.35365 7.4874,-18.28113 11.3143,-22.62872 8.7993,-9.99654 11.87,-10.70894 48.562,-11.2662 39.2067,-0.59544 45.1427,0.007 50.2269,5.09032 5.1114,5.11148 4.8834,8.95378 -1.708,28.77499 -8.421,25.32332 -14.7274,33.97777 -27.6954,38.00768 -5.8,1.8024 -63.2088,2.81267 -72.8896,1.28271 z m 59.8964,-18.86904 c 7.2367,-2.00938 10.823,-6.50035 14.8522,-18.59879 5.574,-16.7372 3.8266,-18.00209 -24.6825,-17.86783 -25.0841,0.11814 -27.5873,1.62558 -34.1803,20.5835 -3.7032,10.64861 -3.3114,13.89325 1.908,15.80237 4.9104,1.79607 35.7121,1.85515 42.1026,0.0808 z m -772.51611,17.83198 c -0.0107,-0.57752 5.4913,-16.8245 12.2263,-36.10441 l 12.24547,-35.05436 40.33489,0.38769 40.3349,0.38771 3.43878,3.23241 c 2.76734,2.60126 3.4388,4.47903 3.4388,9.61666 0,9.46425 -5.70892,23.81017 -12.57949,31.61094 -6.12861,6.95838 -8.73772,7.49399 -39.97603,8.20666 l -29.22217,0.66666 -2.88808,8.66667 -2.88808,8.66667 -12.22308,0.38337 c -6.72268,0.21085 -12.23168,-0.0892 -12.24221,-0.66667 z m 77.86848,-36.32609 c 6.05657,-2.30271 10.09762,-14.76904 5.37494,-16.58129 -1.15997,-0.44514 -10.6504,-0.80932 -21.08984,-0.80932 h -18.98078 l -2.55576,7.66666 c -1.40568,4.21667 -2.75924,8.41667 -3.00794,9.33334 -0.55778,2.05602 34.97231,2.40076 40.25938,0.39061 z m 39.4326,30.27605 c 1.3594,-3.85 6.38182,-18.1 11.16094,-31.66666 4.77912,-13.56667 9.39327,-26.61667 10.25366,-29 l 1.56433,-4.33334 h 39.91239 c 42.73238,0 47.24622,0.59926 50.51461,6.70628 2.05476,3.83936 0.75988,12.14998 -3.23735,20.7776 -3.56236,7.68898 -7.74661,12.1923 -13.12688,14.12784 l -3.67636,1.32258 3.34303,2.62962 c 4.13739,3.25447 4.25791,7.20919 0.55396,18.17719 l -2.78908,8.25889 h -12.47244 -12.47245 l 2.63402,-7.65592 c 3.75536,-10.91514 3.21918,-11.16886 -22.6325,-10.70974 l -20.59006,0.36566 -3.29517,9 -3.29517,9 h -12.41056 -12.41056 z m 82.38681,-33.33333 c 3.68296,-3.94569 5.09792,-9.803 2.98355,-12.35065 -1.32919,-1.60158 -5.69416,-1.98268 -22.7084,-1.98268 h -21.06292 l -2.30136,7 c -1.26575,3.85 -2.57816,7.75 -2.91648,8.66666 -0.47634,1.29067 4.32777,1.66667 21.29513,1.66667 21.00313,0 22.02616,-0.12427 24.71048,-3 z m 36.62652,38.68483 c 0.32697,-0.92666 5.94431,-17.1292 12.48296,-36.00566 L 614,650.69168 l 43.66667,-0.012 c 27.09629,-0.008 43.66666,0.47448 43.66666,1.27082 0,0.70582 -1.2431,4.60582 -2.76246,8.66666 l -2.76247,7.38286 h -31.30557 -31.30556 l -1.93198,4.62384 c -1.06257,2.54312 -1.93196,4.94312 -1.93196,5.33333 0,0.39023 13.24043,0.70949 29.42319,0.70949 h 29.42319 l -0.94699,3 c -0.52084,1.65 -1.67128,5.1 -2.55652,7.66667 l -1.60955,4.66667 -29.6121,0.35905 -29.61211,0.35905 -1.92123,4.59812 c -1.05666,2.52898 -1.92121,4.9174 -1.92121,5.30762 0,0.39022 14.39185,0.70949 31.98189,0.70949 h 31.98191 l -3.11604,8.33333 -3.11604,8.33334 -44.34881,0.35149 c -35.2775,0.2796 -44.22722,0.007 -43.75431,-1.33333 z m 237.00408,-5.3515 c 1.42739,-3.85 7.10152,-19.83256 12.6092,-35.5168 5.50767,-15.68424 10.25491,-28.75777 10.54943,-29.05228 0.29452,-0.29452 5.91664,-0.36196 12.49361,-0.14986 l 11.95813,0.38561 -7.75212,22 c -4.26366,12.1 -9.93362,28.15 -12.5999,35.66667 l -4.84779,13.66666 h -12.50291 -12.5029 z m 177.58262,-16 c 4.4421,-12.65 9.8225,-28.1 11.9564,-34.33333 2.1339,-6.23333 4.3684,-12.10717 4.9655,-13.05297 0.7857,-1.2446 4.3698,-1.61292 12.9742,-1.33334 l 11.8886,0.38631 -12.5059,35.66667 -12.5059,35.66666 h -12.4248 -12.42479 z M 1176,721.84808 c 0,-0.50528 5.55,-16.72614 12.3333,-36.0464 l 12.3334,-35.1277 18.6666,0.007 18.6667,0.007 8.3679,15.65631 c 4.6024,8.61096 10.9571,20.35746 14.1215,26.10333 l 5.7536,10.44704 9.0341,-26.11371 9.034,-26.1137 h 12.4317 12.4317 l -3.1275,9 c -6.6954,19.26773 -20.5203,58.45322 -21.4165,60.70326 -0.8504,2.1352 -2.742,2.33331 -19.0974,2 l -18.1535,-0.36982 -13.6625,-24.65758 c -7.5144,-13.56166 -14.1248,-24.81109 -14.6898,-24.99872 -0.565,-0.18764 -4.9704,10.90827 -9.7898,24.65758 l -8.7624,24.99872 -12.2376,0.38337 c -6.7306,0.21085 -12.2375,-0.03 -12.2375,-0.53531 z m 185.3333,-18.51473 v -7.33333 h 246 246 v 7.33333 7.33333 h -246 -246 z M 266.08923,686.505 c -17.55094,-4.33514 -32.13002,-8.10133 -32.39798,-8.36929 -0.88746,-0.88747 -22.97897,-74.76086 -23.002,-76.91807 -0.012,-1.16364 3.54342,-8.64924 7.90187,-16.63467 5.60591,-10.27101 7.45892,-14.81189 6.33333,-15.52014 -0.87512,-0.55066 -6.43504,-0.6347 -12.35538,-0.18675 l -10.76427,0.81443 -1.79919,-4.51191 c -0.98954,-2.48156 -1.93794,-4.70423 -2.10753,-4.93928 -0.16959,-0.23504 -5.472,3.00899 -11.78313,7.20897 -6.31114,4.19998 -11.77463,7.3365 -12.14108,6.97003 -0.36646,-0.36645 0.5395,-6.52653 2.01325,-13.68907 1.47375,-7.16253 2.67955,-13.25673 2.67955,-13.54268 0,-0.28594 -3.9,-0.51989 -8.66667,-0.51989 h -8.66667 v -9.33333 c 0,-5.2 -0.59048,-9.42191 -1.33333,-9.53334 -0.73333,-0.11 -1.914,-0.26 -2.62371,-0.33333 -0.70972,-0.0733 -5.35972,5.85769 -10.33333,13.18007 L 138,553.96015 l -37.33333,4.25757 c -20.533337,2.34167 -39.497743,4.30064 -42.14313,4.35327 -4.688896,0.0933 -5.325661,-0.5582 -25.333333,-25.91911 -11.287947,-14.30815 -20.491673,-27.06135 -20.452724,-28.34044 0.03895,-1.27908 5.079273,-9.52243 11.20072,-18.31852 6.121446,-8.79609 11.19832,-16.10165 11.281941,-16.23456 0.08363,-0.13293 16.23766,-2.64296 35.897863,-5.57791 22.43999,-3.34992 36.949913,-6.12521 38.980573,-7.45576 5.76301,-3.77607 4.1828,-7.14319 -11.001765,-23.44277 C 60.072399,395.39193 48.233516,380.35985 37.565331,359.1541 32.926463,349.93317 25.333333,321.5913 25.333333,313.49735 c 0,-4.81361 1.16565,-6.64677 12.131139,-19.078 6.672127,-7.56397 13.499505,-14.48378 15.171955,-15.37737 1.672449,-0.89359 54.516213,-8.22447 117.430583,-16.29085 62.91436,-8.06639 114.73699,-15.18578 115.16138,-15.82087 5.11749,-7.65829 62.5978,-79.62015 64.6553,-80.94451 1.53064,-0.98523 14.12939,-4.85925 27.99724,-8.60893 13.86784,-3.7497 25.67518,-7.10248 26.23852,-7.45064 0.56334,-0.34816 5.04567,-7.07398 9.96074,-14.94627 27.71713,-44.393561 75.56398,-96.348382 102.03356,-110.793799 5.56256,-3.035694 10.51256,-5.519444 11,-5.519444 3.21385,0 -1.70179,27.499742 -9.22148,51.588041 -5.06438,16.223017 -11.69434,30.330622 -41.00955,87.262442 l -18.28843,35.51716 6.03619,16.65111 c 9.51664,26.25209 12.63025,19.89916 -34.13496,69.64792 -22.05932,23.46667 -44.39508,47.11219 -49.63503,52.54559 l -9.52716,9.87892 L 328,340.17072 c -23.83333,-0.87292 -49.33333,-1.95423 -56.66667,-2.40291 L 258,336.95205 l 2.66667,3.03404 c 1.46666,1.66872 17.81666,16.21567 36.33333,32.32653 18.51667,16.11088 33.66667,29.87284 33.66667,30.58214 0,1.089 -38.63126,72.33271 -48.91956,90.21743 -2.83248,4.92384 -2.96106,5.58749 -0.86906,4.48558 1.3504,-0.71129 26.03638,-12.78889 54.85772,-26.83913 l 52.40243,-25.54587 18.93091,10.90109 c 10.41198,5.99562 20.43089,12.17274 22.26422,13.72696 3.89522,3.30219 8.77723,6.15919 10.52476,6.15919 0.67519,0 7.68836,3.6 15.58484,8 7.89647,4.4 14.55219,8 14.79048,8 0.2383,0 0.43326,-22.11983 0.43326,-49.15516 v -49.15516 l 41.66666,-18.9694 c 22.91667,-10.43317 42.12976,-19.40644 42.69575,-19.94059 0.566,-0.53416 -13.33259,-4.2281 -30.88575,-8.20877 l -31.91482,-7.23759 -0.88567,-7.07049 c -0.59393,-4.74152 -0.3582,-7.70608 0.71567,-9 1.34622,-1.62211 9.70806,-1.92951 52.48558,-1.92951 h 50.88426 l 18.17549,35 c 19.04916,36.68238 35.46452,68.58274 43.39643,84.33334 2.5851,5.13333 5.21141,10.23333 5.83622,11.33333 0.6248,1.1 3.65112,6.44964 6.72514,11.88808 l 5.5891,9.88808 25.42463,-75.88808 L 726,322.00001 l 34.26411,-0.35571 34.2641,-0.35569 -27.30309,81.02236 c -15.01671,44.56231 -31.86832,94.37238 -37.44801,110.68904 l -10.14491,29.66667 -49.48277,-0.0231 -49.48276,-0.0231 -36.55479,-74.63735 c -20.10513,-41.05055 -37.52727,-75.51743 -38.71584,-76.59308 -2.91471,-2.63776 -7.14739,-1.30961 -9.68264,3.03827 -1.14547,1.96441 -7.58339,21.57165 -14.30651,43.57165 -6.72313,22 -16.67949,52.24378 -22.12528,67.20838 l -9.9014,27.20837 1.58948,15.89756 1.58948,15.89756 -3.85412,11.35147 c -2.84177,8.36982 -5.37582,13.04397 -9.64745,17.79505 -5.20808,5.79264 -6.76639,6.66665 -15.42547,8.65172 -14.90462,3.41684 -41.20234,4.01784 -62.16094,1.42063 -16.18359,-2.0055 -21.30323,-3.39838 -54.47998,-14.82212 -20.1398,-6.93474 -37.75182,-12.60862 -39.13785,-12.60862 -1.80364,0 -2.52003,0.95398 -2.52003,3.3558 0,1.8457 4.8,19.87259 10.66667,40.05978 5.86667,20.18719 10.66667,37.58212 10.66667,38.65541 0,2.73179 -25.20468,36.62679 -27.109,36.4559 -0.85672,-0.0769 -15.91752,-3.68674 -33.46844,-8.0219 z m 1690.51127,6.37127 c -2.2362,-1.02087 -5.7332,-3.83736 -7.7706,-6.25885 l -3.7047,-4.40272 -4.0652,2.40134 c -8.3329,4.92238 -20.0539,2.21995 -23.7267,-5.4705 -1.795,-3.75876 -2.715,-4.24795 -8.9793,-4.77466 -7.8224,-0.65772 -12.354,-3.77332 -12.354,-8.49369 0,-2.73016 -0.4773,-2.9654 -4.6447,-2.28913 -6.338,1.02853 -11.831,-1.54048 -15.9249,-7.44791 -1.8867,-2.72257 -3.4304,-5.36788 -3.4304,-5.87847 0,-0.51058 11.55,-0.94 25.6667,-0.95425 28.9693,-0.0293 46.1204,-2.05835 60.9317,-7.20864 12.9577,-4.50579 17.4328,-3.77517 22.4275,3.66161 2.063,3.07195 5.118,5.80072 6.9868,6.24095 l 3.3206,0.78228 0.3714,19.17019 c 0.2238,11.5546 -0.1598,19.70129 -0.9656,20.50709 -2.2342,2.23412 -29.4295,2.565 -34.1386,0.41536 z m 58.0662,0.59887 -3.3334,-0.92574 -0.368,-20.27469 -0.3681,-20.27469 h 3.1615 c 3.49,0 6.7733,-3.07134 8.1641,-7.63727 0.5876,-1.92897 2.6525,-3.4942 5.8889,-4.46385 4.3355,-1.29892 6.3591,-1.01867 15.5495,2.15342 15.5523,5.36795 31.2513,7.26092 60.3055,7.2716 29.261,0.0107 29.7484,0.24143 20.3542,9.63555 -4.8476,4.84765 -5.8304,5.2712 -11.233,4.84151 -5.5648,-0.44259 -5.9654,-0.24694 -6.666,3.25645 -0.866,4.32971 -7.2214,7.60925 -14.7458,7.60925 -2.999,0 -4.7094,0.63578 -4.7094,1.75055 0,2.46703 -6.5943,8.46717 -11.2316,10.21969 -4.3304,1.63652 -10.5012,0.70315 -15.0482,-2.27613 -2.794,-1.83068 -3.2726,-1.65176 -7.4605,2.78871 -2.4612,2.60969 -6.1156,5.36866 -8.1208,6.13104 -4.0137,1.52601 -24.8603,1.66061 -30.1389,0.1946 z M 821.47968,545.22473 c -23.32945,-2.24926 -37.20591,-9.13602 -43.38216,-21.53014 -4.33191,-8.69302 -4.64441,-23.25614 -0.83749,-39.02791 2.73061,-11.31271 22.10437,-68.29142 30.82825,-90.66667 14.62907,-37.52103 35.43192,-58.02671 66.91065,-65.95479 17.95352,-4.52169 45.21144,-5.70079 115.25643,-4.98565 66.18604,0.67573 78.04914,1.53029 89.07794,6.41673 18.1523,8.04256 24.4722,22.17707 20.8019,46.52371 -1.5378,10.20045 -24.3174,79.65895 -33.599,102.44799 -11.2004,27.5006 -27.1077,46.57275 -46.7759,56.08217 -13.3463,6.45286 -23.61455,8.97354 -43.85093,10.7646 -17.75078,1.57108 -137.97354,1.51656 -154.42969,-0.07 z m 151.06673,-56.4106 c 11.63303,-3.28417 16.81252,-6.09569 23.07302,-12.52449 7.27267,-7.46816 11.99527,-17.33422 21.06187,-44.00028 10.2561,-30.16435 11.0088,-38.9023 3.9585,-45.95254 -6.567,-6.56709 -15.3489,-7.96561 -54.35437,-8.65604 -59.33174,-1.05022 -75.81928,2.4604 -88.90835,18.93086 -5.88227,7.40186 -10.05437,17.023 -18.99151,43.79553 -6.84633,20.50925 -7.92812,25.05192 -7.42128,31.16375 0.46268,5.57932 1.43543,8.03373 4.41768,11.14653 7.45887,7.78538 18.43594,9.1779 68.61803,8.70471 33.07563,-0.31189 42.13753,-0.79872 48.54641,-2.60803 z M 1910,545.19647 c -14.1404,-1.6268 -27.5281,-5.74392 -32.6259,-10.03338 -6.5153,-5.48229 -8.5685,-10.60614 -8.4804,-21.16308 0.087,-10.37082 1.4987,-16.4871 7.2831,-31.54437 l 3.9227,-10.21104 32.2836,-0.49465 c 17.756,-0.27207 32.4116,-0.4491 32.568,-0.39342 0.1565,0.0557 -0.6155,3.07326 -1.7155,6.7057 -2.4332,8.03502 -1.6555,11.83056 3.0577,14.92092 3.241,2.12514 8.5947,2.3889 55.9063,2.75446 36.6073,0.28284 54.0457,-0.0591 58.0612,-1.13853 11.1484,-2.99687 21.1444,-18.86135 17.2584,-27.3904 -3.4837,-7.64583 -11.3327,-8.49835 -102.1859,-11.0991 -46.8545,-1.34124 -52.803,-2.14392 -63.8452,-8.615 -8.6968,-5.09666 -10.6474,-10.27196 -9.8188,-26.04928 0.4895,-9.31961 1.8074,-16.27364 4.8686,-25.69029 10.9524,-33.69088 24.375,-52.46823 44.6358,-62.44262 19.621,-9.65934 35.664,-11.00554 123.493,-10.3625 65.632,0.48053 67.5613,0.56893 76.3558,3.49876 10.0575,3.35052 17.7918,9.31684 20.5095,15.82104 3.8313,9.16992 1.5921,29.99909 -4.8379,44.99948 l -2.5993,6.06417 h -31.4707 -31.4705 l 0.8624,-3 c 0.4743,-1.65 1.1411,-4.00596 1.4819,-5.23546 0.3408,-1.2295 -0.2603,-4.34148 -1.3358,-6.91551 -3.1172,-7.46036 -5.7805,-7.78119 -60.1621,-7.2468 -50.4587,0.49584 -52.5383,0.73549 -59.1759,6.81992 -7.1026,6.51067 -10.356,19.86889 -5.8241,23.91384 4.9105,4.38289 13.7489,5.12264 75.3752,6.30875 60.3911,1.16232 70.2696,1.92048 80.4505,6.17433 6.2079,2.59381 13.9139,9.69663 16.0396,14.78395 6.3542,15.20786 -4.1265,57.55436 -20.2457,81.80117 -7.3605,11.07171 -17.4652,19.66106 -30.6669,26.06783 -17.5839,8.53343 -21.007,8.83996 -103.286,9.24973 -40.7,0.2027 -78.8,-0.18369 -84.6667,-0.85862 z m -773.2467,-110.19646 37.6512,-109 90.4644,-0.40032 c 94.132,-0.41656 112.1124,0.28981 127.2424,4.99878 11.4454,3.56222 16.7216,7.57513 20.7828,15.80671 3.2267,6.53999 3.4332,7.99398 2.7456,19.33334 -0.5132,8.46373 -2.0621,16.39122 -5.001,25.59482 -11.6522,36.48992 -26.0771,55.45706 -48.3538,63.57954 l -7.9048,2.88224 5.1434,2.5896 c 10.9478,5.51221 15.1432,12.08744 15.1432,23.73343 0,4.97581 -2.4819,14.1783 -9,33.37082 l -9,26.50039 -32.9776,0.005 -32.9776,0.005 6.0214,-17 c 7.6219,-21.51826 8.7126,-26.2803 7.0874,-30.94246 -2.513,-7.20878 -3.7264,-7.35653 -63.9846,-7.79122 l -55.4977,-0.40035 -6.8625,19.73368 c -3.7744,10.85352 -8.1614,23.48368 -9.7489,28.06701 l -2.8864,8.33334 h -32.8691 -32.869 l 37.6512,-109.00001 z m 180.7144,-3.18413 c 10.6474,-3.56491 18.5007,-14.15102 23.2978,-31.40515 1.9617,-7.05595 2.0388,-8.85952 0.534,-12.49261 -3.2023,-7.73075 -4.7428,-7.91811 -65.1065,-7.91811 h -54.5592 l -6.3679,18.33333 c -3.5023,10.08334 -7.6954,22.08334 -9.318,26.66667 l -2.9503,8.33333 h 54.9689 c 37.549,0 56.4052,-0.48089 59.5012,-1.51746 z m 103.3018,95.18413 c 3.2824,-9.35 20.2758,-58.4 37.763,-109 l 31.7951,-92 90.5028,-0.40032 c 94.9379,-0.41995 111.9932,0.27052 127.8788,5.17705 11.1151,3.43311 19.6164,11.12466 21.9841,19.88994 4.665,17.27002 -5.997,55.88809 -22.1302,80.15585 -7.3655,11.07929 -18.1194,19.65703 -30.1375,24.03908 l -8.0455,2.93351 5.1434,2.5896 c 6.9621,3.50542 11.1274,7.43844 13.315,12.57247 3.5144,8.24788 2.2876,15.71908 -7.1801,43.72718 l -9.0083,26.64898 -32.9257,0.35648 -32.9259,0.35648 6.6008,-19.44238 c 9.3738,-27.61045 8.8426,-32.18201 -4.0857,-35.1608 -3.5505,-0.81809 -26.9209,-1.39117 -57.5208,-1.41052 l -51.5407,-0.0326 -3.9141,11 c -2.1529,6.05 -6.5535,18.65 -9.7792,28 l -5.8649,17 h -32.9463 -32.9464 z m 212.6982,-95.18413 c 8.1132,-2.71642 12.9348,-7.4744 17.7638,-17.52935 9.0028,-18.74635 8.7994,-29.48897 -0.6204,-32.77276 -2.9651,-1.03365 -21.5746,-1.51376 -58.6748,-1.51376 h -54.3324 l -3.4492,9.66667 c -1.8972,5.31666 -6.1132,17.31666 -9.369,26.66666 l -5.9196,17 h 55.0347 c 37.5981,0 56.4705,-0.48077 59.5669,-1.51746 z m 108.008,85.20729 c 5.1471,-14.86273 21.9888,-63.62316 37.426,-108.35649 15.4371,-44.73334 28.4904,-81.79426 29.0072,-82.35759 0.5168,-0.56335 15.3947,-0.86335 33.0622,-0.66667 l 32.1225,0.35759 -37.5468,108.66667 -37.5468,108.66667 -32.9413,0.35649 -32.9412,0.35651 z"
     id="path20"
     inkscape:connector-curvature="0" />
</svg>
